<svg class="icon" viewBox="0 0 1024 1024" xmlns="http://www.w3.org/2000/svg" width="250" height="250">
  <defs>
    <linearGradient id="gradient1" x1="0%" y1="0%" x2="100%" y2="0%">
      <stop offset="0%" style="stop-color: rgba(23, 150, 223, 1);" />
      <stop offset="100%" style="stop-color: rgba(41, 234, 224, 1);" />
    </linearGradient>
  </defs>
  <path d="M608 42.666667c53.312 0 104.533333 8.896 152.298667 25.258666a466.538667 466.538667 0 0 0-196.608 73.045334l-0.661334 0.426666C798.229333 166.826667 981.333333 366.037333 981.333333 608c0 53.312-8.896 104.533333-25.28 152.298667a466.56 466.56 0 0 0-73.514666-197.333334C857.173333 798.229333 657.962667 981.376 416 981.376c-53.312 0-104.533333-8.896-152.298667-25.28a466.538667 466.538667 0 0 0 196.608-73.045333l0.725334-0.469334C225.792 857.173333 42.666667 657.941333 42.666667 416c0-53.312 8.896-104.533333 25.258666-152.298667a466.56 466.56 0 0 0 73.493334 197.269334C166.826667 225.749333 366.058667 42.666667 608 42.666667zM512 352a160 160 0 1 0 0 320 160 160 0 0 0 0-320z" fill="url(#gradient1)"></path>
</svg>
